# xmcd
#
# Track frame offsets:
#	150
#	14799
#	28880
#	45394
#	60880
#	72657
#	90899
#	110274
#	126663
#	141047
#	163007
#	181862
#	193761
#	209442
#	224395
#	240620
#	260667
#	283169
#	297768
#	319460
#
# Disc length: 4526 seconds
#
# Revision: 1
# Processed by: cddbd v1.5.2PL0 Copyright (c) Steve Scherf et al.
# Submitted via: EasyCDDAExtractor 16.0.8.2
#
DISCID=3a11ac14
DTITLE=Άνευ ερμηνευτού - Jazz collection 11-Sal Salvador
DYEAR=2010
DGENRE=Ξένη jazz
TTITLE0=Frivolous Sal
TTITLE1=Tangerine
TTITLE2=I cover the waterfront
TTITLE3=You stepped out of a dream
TTITLE4=You could swing for that
TTITLE5=All the things you are
TTITLE6=Salaman
TTITLE7=Handful of stars
TTITLE8=I love you
TTITLE9=I'll remember April
TTITLE10=Delighted
TTITLE11=Twoo sleepy people
TTITLE12=Joe and me
TTITLE13=Flamingo
TTITLE14=Carioca
TTITLE15=I've got afeelin' you are foolin'
TTITLE16=I hadn't anyone
TTITLE17=They say it's wonderful
TTITLE18=You're driving me crazy
TTITLE19=Took the spook
EXTD=
EXTT0=
EXTT1=
EXTT2=
EXTT3=
EXTT4=
EXTT5=
EXTT6=
EXTT7=
EXTT8=
EXTT9=
EXTT10=
EXTT11=
EXTT12=
EXTT13=
EXTT14=
EXTT15=
EXTT16=
EXTT17=
EXTT18=
EXTT19=
PLAYORDER=
